# xmcd
#
# Track frame offsets:
#	150
#	15488
#	31658
#	44833
#	58109
#	71654
#	81774
#	98089
#	111731
#	122960
#	141875
#	158045
#	172272
#	188838
#	210864
#	228374
#	246805
#	266945
#	286806
#
# Disc length: 4062 seconds
#
# Revision: 1
# Processed by: cddbd v1.4PL0 Copyright (c) Steve Scherf et al.
# Submitted via: audiograbber 1.80
#
DISCID=160fdc13
DTITLE=Paul Anka - 1960s Greatest Hits
DYEAR=1900
DGENRE=
TTITLE0=Steel Guitar And A Glass Of Wine
TTITLE1=Love Me Warm And Tender
TTITLE2=Adam And Eve
TTITLE3=My Hometown
TTITLE4=Lonely Boy
TTITLE5=Eso besso (That Kiss)
TTITLE6=La verita (In Italian)
TTITLE7=Goodnight My Love
TTITLE8=Ogni volta (In Italian)
TTITLE9=Gave A Little Lost A Lot
TTITLE10=Ogni giorno (In Italian) (Love Me Warm And Tender)
TTITLE11=What's Forever For
TTITLE12=Let Me Try Again
TTITLE13=Since I Feel For You
TTITLE14=I Only Have Eyes For You
TTITLE15=What A Difference A Day Makes
TTITLE16=It Doesn't Matter Anyone
TTITLE17=I'm Not Anyone
TTITLE18=Freedom
EXTD=
EXTT0=
EXTT1=
EXTT2=
EXTT3=
EXTT4=
EXTT5=
EXTT6=
EXTT7=
EXTT8=
EXTT9=
EXTT10=
EXTT11=
EXTT12=
EXTT13=
EXTT14=
EXTT15=
EXTT16=
EXTT17=
EXTT18=
PLAYORDER=
